<svg width="556" height="891" viewBox="0 0 556 891" fill="none" xmlns="http://www.w3.org/2000/svg">
<g clip-path="url(#clip0_158_956)">
<path d="M275.87 495.921C269.154 503.238 266.565 514.837 272.903 524.019C278.869 532.662 290.477 534.78 298.003 528.226C316.171 512.403 297.43 481.781 277.872 487.478C274.252 488.532 275.13 494.576 278.7 494.912C284.41 495.449 290.52 495.872 295.063 500.672C299.942 505.826 300.017 514.324 295.971 519.988C285.261 534.985 266.862 511.966 278.101 498.601C279.52 496.915 277.351 494.306 275.87 495.921Z" fill="#68B8B3"/>
<path d="M461.128 524.834C463.807 534.778 466.731 544.581 469.764 554.372C470.494 556.729 472.576 557.276 474.426 555.666C481.695 549.34 488.968 543.106 495.833 536.222C497.155 534.896 496.812 532.535 495.464 531.659C487.15 526.261 475.909 518.189 465.52 519.194C462.877 519.449 461.114 523.768 463.827 525.209C468.073 527.463 473.118 527.904 477.637 529.509C482.853 531.363 488.024 533.636 492.661 536.785C492.728 535.101 492.798 533.416 492.865 531.733C485.16 537.878 477.924 544.629 470.612 551.362C472.081 551.537 473.549 551.711 475.019 551.885C471.65 542.252 468.195 532.698 464.483 523.244C463.7 521.25 460.557 522.713 461.128 524.834Z" fill="#68B8B3"/>
<path d="M512.712 578.674C523.59 572.895 534.73 566.216 544.546 558.293C548.152 555.383 544.639 549.444 540.841 551.659C530.355 557.771 520.132 565.75 510.768 573.916C508.888 575.554 510.249 579.982 512.712 578.674Z" fill="#68B8B3"/>
<path d="M114.428 617.147C111.76 603.771 108.37 589.962 103.611 577.5C101.864 572.923 95.9525 576.109 97.0547 580.808C100.096 593.78 104.816 606.72 109.879 618.697C110.895 621.1 115.032 620.177 114.428 617.147Z" fill="#68B8B3"/>
<path d="M147.769 494.649C147.565 494.434 147.363 494.22 147.159 494.005C144.477 491.169 140.071 490.577 137.453 493.913C134.808 497.286 134.895 501.956 137.437 505.378C137.616 505.621 137.796 505.863 137.975 506.106C140.374 509.338 145.327 509.291 147.752 506.199C150.161 503.126 150.655 497.699 147.769 494.649Z" fill="#68B8B3"/>
<path d="M182.747 609.04C183.289 604.733 183.18 600.642 185.213 596.839C189.263 589.262 195.026 591.127 200.607 594.42C206.293 597.774 211.646 599.773 217.82 596.574C227.464 591.58 231.976 574.338 222.763 566.291C219.777 563.683 216.847 568.03 217.248 571.343C217.81 575.973 219.757 581.058 216.406 585.057C211.926 590.406 206.664 585.964 202.188 583.601C197.352 581.049 192.212 580.508 187.228 582.921C178.645 587.076 172.432 600.886 179.258 610.149C180.221 611.455 182.518 610.853 182.747 609.04Z" fill="#323F81"/>
<path d="M309.435 617.141C321.032 613.514 333.025 609.045 343.899 603.079C347.894 600.887 345.33 594.305 341.251 595.767C329.99 599.803 318.703 605.744 308.238 612.036C306.139 613.298 306.809 617.963 309.435 617.141Z" fill="#1A2351"/>
<path d="M251.947 631.767C254.395 642.528 257.087 653.168 259.887 663.805C260.561 666.365 262.603 667.163 264.457 665.664C271.747 659.772 279.036 653.975 285.94 647.454C287.268 646.197 286.976 643.676 285.664 642.61C277.573 636.039 266.648 626.341 256.387 626.295C253.776 626.283 251.952 630.646 254.601 632.452C258.743 635.275 263.708 636.278 268.131 638.45C273.237 640.957 278.292 643.901 282.801 647.711C282.901 645.945 283.002 644.177 283.101 642.411C275.386 648.068 268.119 654.406 260.781 660.724C262.227 661.064 263.67 661.404 265.116 661.744C261.98 651.237 258.762 640.806 255.285 630.452C254.551 628.265 251.425 629.473 251.947 631.767Z" fill="#323F81"/>
<path d="M267.894 739.591C279.868 740.648 292.454 741.071 304.411 739.67C308.803 739.155 308.264 732.033 303.999 731.835C292.228 731.286 279.888 732.508 268.222 734.371C265.883 734.745 265.182 739.351 267.894 739.591Z" fill="#323F81"/>
<path d="M323.555 579.162L196.491 637.628L192.511 558.403L165.306 545.897C165.306 545.897 125.859 673.057 175.191 696.733C224.526 720.41 280.114 676.661 280.114 676.661L323.555 579.162Z" fill="#A6B3F6"/>
<path d="M339.277 559.746C294.926 576.54 268.471 596.219 206.037 627.167L238.096 712.136L293.36 691.051L339.277 559.746Z" fill="#68B8B3"/>
<path d="M163.928 548.542C163.928 548.542 169.573 507.351 176.316 507.795C183.059 508.24 196.544 507.793 196.544 507.793C196.544 507.793 197.669 468.617 201.415 474.85C205.161 481.083 206.341 533.793 191.891 559.083L163.928 548.542Z" fill="#A6B3F6"/>
<path d="M436.563 855.9C436.563 855.9 322.675 887.384 276.93 833.019L293.301 703.16C298.275 665.835 295.309 594.013 319.363 568.535C324.017 563.605 328.496 561.151 328.496 561.151C345.371 551.468 375.389 546.239 404.209 546.107C439.221 545.946 475.256 577.412 484.45 617.559L446.556 722.902L436.563 855.9Z" fill="#68B8B3"/>
<path d="M379.628 678.233C395.112 677.207 410.399 678.006 425.87 678.248C427.221 678.27 427.141 675.998 425.87 675.818C410.629 673.651 394.884 674.519 379.628 676.077C378.479 676.194 378.451 678.31 379.628 678.233Z" fill="#1A2766"/>
<path d="M304.009 627.407C297.569 657.929 293.245 689.673 291.65 721.101C291.584 722.4 293.431 722.731 293.588 721.412C297.33 690.161 301.095 659.001 305.311 627.835C305.446 626.837 304.224 626.381 304.009 627.407Z" fill="#1A2766"/>
<path d="M432.715 632.088C432.715 632.088 483.729 748.871 458.397 755.091C375.064 775.549 326.693 792.328 326.693 792.328L322.447 830.791C323.69 836.603 491.043 831.572 510.866 804.853C524.862 785.987 543.468 742.383 503.887 648.011L491.86 615.908L432.715 632.088Z" fill="#A6B3F6"/>
<path d="M326.694 792.328C326.694 792.328 266.232 804.906 267.414 814.228C268.596 823.549 272.842 832.95 272.842 832.95L326.694 831.445V792.328Z" fill="#A6B3F6"/>
<path d="M425.999 615.908L458.228 704.906L530.918 689.133C530.918 689.133 507.941 613.645 473.844 591.39C470.8 589.405 423.967 615.908 423.967 615.908" fill="#68B8B3"/>
<path d="M456.384 573.359C404.08 578.973 439.854 670.622 453.259 698.374C454.006 699.919 456.01 698.53 455.271 696.976C441.947 668.942 406.292 583.652 456.557 574.876C457.275 574.75 457.112 573.28 456.384 573.359Z" fill="#1A2766"/>
<path d="M384.912 836.865L384.451 826.918L259.917 817.862L218.152 685.093L81.4648 694.025L128.096 837.598L384.912 836.865Z" fill="#68B8B3"/>
<g opacity="0.41">
<path d="M156.828 757.244C157.136 763.884 161.913 768.974 167.501 768.609C173.09 768.243 177.371 762.565 177.064 755.923C176.756 749.283 171.977 744.192 166.389 744.558C160.802 744.923 156.521 750.604 156.828 757.244Z" fill="white"/>
</g>
<g opacity="0.41">
<path d="M152.778 757.508C153.207 766.808 159.899 773.933 167.724 773.422C175.55 772.911 181.543 764.956 181.113 755.657C180.683 746.359 173.991 739.234 166.166 739.745C158.341 740.256 152.348 748.208 152.778 757.508Z" fill="white"/>
</g>
<path d="M61.1758 839.806L595.744 831.874L627.052 851.411C627.052 851.411 216.678 985.27 61.1758 839.806Z" fill="#1A2351"/>
<path d="M377.809 219.598C377.809 219.598 350.27 221.233 349.352 256.143C349.352 256.143 349.811 275.234 358.531 282.325C367.251 289.417 366.794 297.052 366.794 297.052H389.742C389.742 297.052 388.825 287.233 392.496 281.779C396.168 276.323 405.348 264.868 403.971 247.959C402.595 231.051 392.037 217.962 377.809 219.598Z" fill="#D1E8EF"/>
<path d="M366.352 305.339C374.593 304.886 382.927 305.962 391.11 305.394C392.29 305.313 392.692 303.126 391.405 302.809C383.45 300.857 374.355 301.94 366.352 303.008C365.128 303.171 365.065 305.412 366.352 305.339Z" fill="black"/>
<path d="M369.559 313.62C372.845 313.393 376.143 313.232 379.433 313.274C382.705 313.316 386.058 313.957 389.311 313.675C390.506 313.571 390.875 311.484 389.606 311.09C383.314 309.137 375.658 310.264 369.298 311.33C368.205 311.513 368.462 313.697 369.559 313.62Z" fill="black"/>
<path d="M372.494 319.956C375.371 320.194 378.342 321.163 381.208 321.088C382.631 321.05 382.89 318.67 381.54 318.166C378.754 317.125 375.38 317.488 372.494 317.625C371.223 317.684 371.24 319.853 372.494 319.956Z" fill="black"/>
<path d="M373.566 296.676C374.203 286.973 371.448 276.233 370.055 266.713C369.257 267.114 368.457 267.512 367.658 267.913C368.812 270.168 370.732 276.667 373.677 276.434C376.721 276.194 377.849 269.741 378.279 267.112C377.403 267.112 376.528 267.112 375.652 267.112C376.239 270.106 376.315 277.336 380.274 276.654C383.626 276.075 385.889 270.157 386.916 266.914C386.006 266.614 385.093 266.319 384.183 266.02C382.158 275.513 381.188 287.53 383.216 297.096C383.581 298.814 385.878 298.474 385.834 296.676C385.586 286.618 384.4 276.773 386.916 266.914C387.457 264.798 384.833 264.049 384.183 266.02C383.813 267.138 381.643 273.51 379.594 272.689C379.077 272.482 378.392 266.804 378.279 266.251C377.973 264.763 375.895 264.65 375.652 266.251C375.356 268.202 374.672 273.514 372.736 271.927C371.617 271.009 370.628 267.739 369.924 266.339C369.114 264.732 367.304 265.868 367.527 267.541C368.792 277.068 369.14 288.157 372.358 297.063C372.638 297.834 373.523 297.347 373.566 296.676Z" fill="#1A2351"/>
<path d="M362.194 213.685C359.004 209.797 355.817 205.91 352.627 202.022" stroke="#1A2351" stroke-width="3.32" stroke-miterlimit="10"/>
<path d="M335.251 253.521C327.797 251.994 320.343 250.462 312.887 248.934" stroke="#1A2351" stroke-width="3.32" stroke-miterlimit="10"/>
<path d="M344.535 229.433C334.86 224.619 325.187 219.805 315.512 214.991" stroke="#1A2351" stroke-width="3.32" stroke-miterlimit="10"/>
<path d="M378.909 205.488C376.927 192.014 374.947 178.538 372.965 165.064" stroke="#1A2351" stroke-width="3.32" stroke-miterlimit="10"/>
<path d="M392.82 208.988C395.12 203.371 397.425 197.752 399.725 192.135" stroke="#1A2351" stroke-width="3.32" stroke-miterlimit="10"/>
<path d="M405.035 217.925C415.161 209.127 425.286 200.329 435.414 191.531" stroke="#1A2351" stroke-width="3.32" stroke-miterlimit="10"/>
<path d="M416.249 234.189C420.838 233.492 425.405 231.578 429.271 228.735" stroke="#1A2351" stroke-width="3.32" stroke-miterlimit="10"/>
<path d="M421.383 261.126C437.86 260.449 454.34 259.773 470.817 259.096" stroke="#1A2351" stroke-width="3.32" stroke-miterlimit="10"/>
<path d="M423.279 482.509L410.689 562.309C407.853 580.287 392.936 591.791 377.965 587.544H377.963C364.089 583.61 355.204 567.505 357.698 550.814L364.53 505.079L423.279 482.509Z" fill="#A6B3F6"/>
<path d="M400.923 528.623C394.408 533.991 386.449 536.838 378.523 536.639C370.598 536.441 362.747 533.198 356.428 527.509" stroke="#1A2351" stroke-width="0.18924" stroke-miterlimit="10"/>
<path d="M426.432 458.111C427.232 444.986 428.033 431.862 428.833 418.738C437.512 415.832 442.025 402.633 438.561 392.739C435.096 382.844 425.259 377.287 416.332 378.802C421.967 374.245 421.532 363.358 416.908 357.406C412.284 351.455 405.036 349.527 398.226 349.214C391.414 348.901 384.523 349.883 377.82 348.404C371.883 347.094 366.066 343.864 360.074 344.762C354.083 345.661 348.357 353.67 351.586 359.734C342.944 358.225 333.597 356.854 325.922 361.808C318.247 366.759 314.392 380.85 320.989 387.653C316.629 390.295 315.54 397.794 317.991 402.825C320.442 407.858 325.457 410.5 330.337 410.916C335.216 411.332 340.055 409.863 344.792 408.408" fill="#1A2351"/>
<path d="M425.022 432.587L423.279 459.867C423.279 459.867 442.798 462.994 437.235 484.152C431.671 505.31 418.32 496.054 418.32 496.054C418.32 496.054 414.981 550.27 368.25 533.079C331.056 519.398 333.331 462.162 338.053 413.366C339.881 394.465 354.928 381.464 370.643 385.101L398.738 391.607C414.978 395.368 426.275 412.981 425.022 432.587Z" fill="#A6B3F6"/>
<path d="M428.661 472.919C427.72 475.442 426.78 477.963 425.839 480.486C426.562 479.062 428.598 479.282 429.344 480.689C430.091 482.096 429.654 484.075 428.631 485.211C427.609 486.347 426.149 486.761 424.75 486.798" stroke="#1A2351" stroke-width="0.18924" stroke-miterlimit="10"/>
<path d="M423.279 459.867C410.235 444.755 406.402 419.575 402.862 398.34C390.783 408.795 374.167 411.365 360.238 404.936C355.866 411.041 350.73 416.374 345.052 420.702C343.439 421.933 341.525 423.126 339.689 422.468C337.501 421.682 336.525 418.699 336.004 416.054C334.337 407.585 334.276 398.52 336.762 390.339C339.248 382.16 344.459 374.974 351.284 371.834C358.582 368.476 366.79 369.936 374.364 372.27C385.774 375.786 396.769 381.187 406.938 388.267C416.919 395.218 426.508 404.408 430.743 417.201C434.978 429.995 434.958 454.861 424.75 461.327" fill="#1A2351"/>
<path d="M398.155 435.96C395.704 433.201 392.041 432.056 388.766 433.029" stroke="#1A2351" stroke-width="4.98" stroke-miterlimit="10"/>
<path d="M359.043 426.53C355.855 424.319 351.826 423.901 348.363 425.42" stroke="#1A2351" stroke-width="4.98" stroke-miterlimit="10"/>
<path d="M368.605 434.824C367.916 447.906 367.227 460.988 366.538 474.07C366.384 476.99 366.265 480.162 367.221 482.613C368.177 485.063 370.667 485.898 371.59 483.41" stroke="#1A2351" stroke-width="1.66" stroke-miterlimit="10"/>
<path d="M384.566 487.344C384.203 492.36 381.128 496.948 377.095 498.489C373.062 500.03 368.312 498.432 365.559 494.605" stroke="#1A2351" stroke-width="1.66" stroke-miterlimit="10"/>
<path d="M354.479 439.886C356.665 439.886 358.439 442.121 358.439 444.874C358.439 447.627 356.665 449.862 354.479 449.862C352.294 449.862 350.52 447.627 350.52 444.874C350.52 442.121 352.294 439.886 354.479 439.886Z" fill="#1A2351"/>
<path d="M390.913 444.701C393.098 444.701 394.873 446.936 394.873 449.689C394.873 452.442 393.098 454.677 390.913 454.677C388.728 454.677 386.953 452.442 386.953 449.689C386.953 446.936 388.728 444.701 390.913 444.701Z" fill="#1A2351"/>
</g>
<defs>
<clipPath id="clip0_158_956">
<rect width="683" height="948" fill="white"/>
</clipPath>
</defs>
</svg>
