<svg width="529" height="789" viewBox="0 0 529 789" fill="none" xmlns="http://www.w3.org/2000/svg">
<g clip-path="url(#clip0_78_861)">
<path d="M262.603 429.486C256.213 435.866 253.73 445.951 259.723 453.904C265.363 461.391 276.374 463.189 283.53 457.469C300.807 443.66 283.094 417.126 264.523 422.145C261.085 423.073 261.904 428.32 265.291 428.6C270.708 429.045 276.505 429.391 280.804 433.545C285.423 438.005 285.473 445.386 281.622 450.32C271.423 463.386 254.018 443.456 264.714 431.806C266.064 430.337 264.013 428.078 262.603 429.486Z" fill="#68B8B3"/>
<path d="M438.888 454.214C441.498 462.948 444.338 471.56 447.281 480.163C447.989 482.234 449.959 482.737 451.692 481.348C458.502 475.892 465.316 470.516 471.741 464.567C472.977 463.422 472.634 461.351 471.354 460.57C463.463 455.752 452.787 448.563 442.988 449.327C440.495 449.521 438.866 453.282 441.439 454.573C445.466 456.593 450.231 457.035 454.51 458.49C459.448 460.17 464.348 462.217 468.75 465.024C468.801 463.552 468.852 462.078 468.903 460.605C461.679 465.898 454.904 471.726 448.056 477.539C449.445 477.708 450.832 477.877 452.221 478.046C448.963 469.576 445.624 461.176 442.042 452.86C441.287 451.106 438.332 452.352 438.888 454.214Z" fill="#68B8B3"/>
<path d="M487.936 501.233C498.284 496.183 508.882 490.349 518.224 483.437C521.656 480.898 518.33 475.745 514.716 477.68C504.741 483.019 495.011 489.981 486.098 497.103C484.308 498.531 485.593 502.377 487.936 501.233Z" fill="#68B8B3"/>
<path d="M108.875 534.654C106.277 522.984 103.002 510.929 98.468 500.029C96.8033 496.026 91.3368 498.725 92.4032 502.827C95.3459 514.15 99.8483 525.465 104.662 535.946C105.627 538.05 109.464 537.297 108.875 534.654Z" fill="#68B8B3"/>
<path d="M140.63 428.371C140.436 428.185 140.245 428 140.051 427.814C137.502 425.358 133.314 424.85 130.822 427.745C128.304 430.672 128.384 434.72 130.798 437.683C130.968 437.894 131.139 438.104 131.309 438.314C133.588 441.113 138.298 441.067 140.605 438.383C142.899 435.717 143.372 431.012 140.63 428.371Z" fill="#68B8B3"/>
<path d="M173.931 527.452C174.446 523.719 174.34 520.173 176.273 516.879C180.122 510.315 185.605 511.934 190.916 514.791C196.327 517.701 201.419 519.436 207.292 516.668C216.465 512.345 220.75 497.404 211.982 490.425C209.14 488.163 206.354 491.928 206.737 494.8C207.274 498.813 209.129 503.222 205.942 506.685C201.682 511.319 196.674 507.466 192.415 505.415C187.813 503.201 182.923 502.729 178.184 504.818C170.02 508.414 164.115 520.379 170.612 528.411C171.529 529.544 173.715 529.023 173.931 527.452Z" fill="#323F81"/>
<path d="M294.483 534.495C305.518 531.338 316.93 527.451 327.279 522.265C331.081 520.361 328.646 514.653 324.764 515.925C314.049 519.436 303.307 524.599 293.348 530.067C291.349 531.164 291.984 535.21 294.483 534.495Z" fill="#1A2351"/>
<path d="M239.775 547.125C242.106 556.447 244.669 565.664 247.335 574.879C247.977 577.097 249.92 577.788 251.684 576.49C258.619 571.388 265.554 566.368 272.122 560.721C273.385 559.633 273.107 557.448 271.859 556.525C264.159 550.831 253.763 542.428 243.998 542.386C241.514 542.375 239.78 546.154 242.3 547.719C246.242 550.165 250.966 551.035 255.176 552.917C260.034 555.09 264.844 557.642 269.135 560.943C269.23 559.413 269.326 557.881 269.42 556.352C262.08 561.25 255.166 566.739 248.185 572.21C249.561 572.505 250.934 572.8 252.31 573.095C249.325 563.993 246.261 554.956 242.951 545.986C242.252 544.092 239.278 545.137 239.775 547.125Z" fill="#323F81"/>
<path d="M254.95 640.511C266.344 641.426 278.323 641.792 289.701 640.579C293.882 640.133 293.369 633.965 289.31 633.793C278.108 633.319 266.364 634.377 255.262 635.99C253.035 636.314 252.368 640.303 254.95 640.511Z" fill="#323F81"/>
<path d="M307.921 501.574L186.996 552.207L183.209 483.596L157.318 472.766C157.318 472.766 119.777 582.89 166.726 603.395C213.676 623.899 266.579 586.011 266.579 586.011L307.921 501.574Z" fill="#A6B3F6"/>
<path d="M322.883 484.759C280.675 499.303 255.498 516.345 196.081 543.148L226.591 616.734L279.185 598.473L322.883 484.759Z" fill="#68B8B3"/>
<path d="M156.006 475.056C156.006 475.056 161.378 439.383 167.796 439.768C174.213 440.153 187.047 439.766 187.047 439.766C187.047 439.766 188.117 405.838 191.682 411.236C195.247 416.634 196.37 462.282 182.618 484.185L156.006 475.056Z" fill="#A6B3F6"/>
<path d="M415.47 741.239C415.47 741.239 307.085 768.505 263.55 721.422L279.13 608.96C283.864 576.636 281.041 514.435 303.933 492.371C308.362 488.101 312.625 485.975 312.625 485.975C328.685 477.59 357.252 473.061 384.68 472.947C418 472.808 452.294 500.058 461.044 534.827L424.98 626.058L415.47 741.239Z" fill="#68B8B3"/>
<path d="M361.286 587.373C376.022 586.484 390.57 587.176 405.294 587.386C406.579 587.405 406.503 585.437 405.294 585.281C390.789 583.405 375.805 584.156 361.286 585.506C360.193 585.607 360.166 587.439 361.286 587.373Z" fill="#1A2766"/>
<path d="M289.321 543.356C283.192 569.789 279.077 597.28 277.559 624.498C277.496 625.623 279.254 625.909 279.403 624.767C282.965 597.703 286.547 570.717 290.56 543.726C290.689 542.862 289.525 542.467 289.321 543.356Z" fill="#1A2766"/>
<path d="M411.808 547.41C411.808 547.41 460.358 648.548 436.249 653.934C356.943 671.651 310.909 686.182 310.909 686.182L306.868 719.493C308.051 724.526 467.318 720.17 486.183 697.03C499.503 680.691 517.21 642.929 479.542 561.199L468.096 533.397L411.808 547.41Z" fill="#A6B3F6"/>
<path d="M310.909 686.182C310.909 686.182 253.368 697.075 254.493 705.149C255.618 713.222 259.659 721.363 259.659 721.363L310.909 720.059V686.182Z" fill="#A6B3F6"/>
<path d="M405.416 533.397L436.088 610.472L505.265 596.813C505.265 596.813 483.398 531.437 450.949 512.164C448.052 510.444 403.481 533.397 403.481 533.397" fill="#68B8B3"/>
<path d="M434.332 496.548C384.555 501.41 418.6 580.781 431.358 604.815C432.068 606.154 433.976 604.951 433.272 603.605C420.592 579.326 386.66 505.462 434.496 497.862C435.18 497.753 435.025 496.48 434.332 496.548Z" fill="#1A2766"/>
<path d="M366.314 724.753L365.875 716.139L247.358 708.296L207.611 593.314L77.5283 601.049L121.907 725.388L366.314 724.753Z" fill="#68B8B3"/>
<g opacity="0.41">
<path d="M149.25 655.799C149.543 661.549 154.09 665.958 159.407 665.641C164.726 665.325 168.801 660.407 168.508 654.655C168.216 648.904 163.667 644.496 158.349 644.812C153.032 645.129 148.958 650.048 149.25 655.799Z" fill="white"/>
</g>
<g opacity="0.41">
<path d="M145.396 656.028C145.805 664.082 152.173 670.252 159.62 669.809C167.067 669.367 172.771 662.478 172.362 654.424C171.953 646.372 165.585 640.202 158.137 640.644C150.69 641.087 144.987 647.974 145.396 656.028Z" fill="white"/>
</g>
<path d="M58.2188 727.301L566.958 720.431L596.754 737.351C596.754 737.351 206.207 853.277 58.2188 727.301Z" fill="#1A2351"/>
<path d="M359.555 190.179C359.555 190.179 333.347 191.596 332.473 221.828C332.473 221.828 332.91 238.362 341.209 244.503C349.507 250.645 349.072 257.257 349.072 257.257H370.911C370.911 257.257 370.038 248.753 373.533 244.03C377.027 239.305 385.763 229.385 384.453 214.741C383.143 200.098 373.096 188.762 359.555 190.179Z" fill="#D1E8EF"/>
<path d="M348.653 264.434C356.495 264.041 364.427 264.974 372.214 264.482C373.337 264.411 373.72 262.518 372.495 262.243C364.924 260.552 356.269 261.49 348.653 262.415C347.487 262.556 347.427 264.497 348.653 264.434Z" fill="black"/>
<path d="M351.703 271.605C354.83 271.409 357.969 271.27 361.1 271.306C364.214 271.342 367.405 271.897 370.501 271.653C371.638 271.563 371.989 269.756 370.781 269.414C364.794 267.723 357.507 268.699 351.454 269.622C350.414 269.78 350.659 271.672 351.703 271.605Z" fill="black"/>
<path d="M354.497 277.093C357.235 277.299 360.063 278.138 362.79 278.073C364.144 278.04 364.391 275.979 363.106 275.543C360.454 274.641 357.244 274.955 354.497 275.074C353.287 275.125 353.303 277.003 354.497 277.093Z" fill="black"/>
<path d="M355.517 256.931C356.124 248.528 353.502 239.227 352.176 230.983C351.417 231.33 350.655 231.675 349.895 232.022C350.993 233.974 352.82 239.603 355.623 239.401C358.52 239.193 359.594 233.604 360.003 231.328C359.169 231.328 358.337 231.328 357.503 231.328C358.062 233.921 358.134 240.183 361.902 239.591C365.091 239.09 367.245 233.965 368.222 231.156C367.356 230.897 366.487 230.641 365.622 230.382C363.695 238.604 362.771 249.011 364.701 257.295C365.049 258.783 367.235 258.489 367.192 256.931C366.956 248.221 365.828 239.694 368.222 231.156C368.737 229.324 366.24 228.676 365.622 230.382C365.269 231.351 363.204 236.869 361.254 236.157C360.763 235.978 360.11 231.061 360.003 230.582C359.712 229.293 357.734 229.196 357.503 230.582C357.221 232.272 356.57 236.873 354.728 235.498C353.663 234.703 352.721 231.871 352.051 230.659C351.281 229.267 349.558 230.25 349.77 231.7C350.974 239.95 351.305 249.554 354.368 257.267C354.634 257.934 355.477 257.513 355.517 256.931Z" fill="#1A2351"/>
<path d="M344.693 185.226C341.657 181.747 338.624 178.269 335.588 174.79" stroke="#1A2351" stroke-width="3.32" stroke-miterlimit="10"/>
<path d="M319.053 219.54C311.959 218.229 304.865 216.915 297.77 215.603" stroke="#1A2351" stroke-width="3.32" stroke-miterlimit="10"/>
<path d="M327.887 199.347C318.679 194.744 309.473 190.142 300.266 185.539" stroke="#1A2351" stroke-width="3.32" stroke-miterlimit="10"/>
<path d="M360.603 177.977C358.717 166.296 356.833 154.615 354.946 142.933" stroke="#1A2351" stroke-width="3.32" stroke-miterlimit="10"/>
<path d="M374.142 180.991C376.13 176.126 378.123 171.26 380.111 166.396" stroke="#1A2351" stroke-width="3.32" stroke-miterlimit="10"/>
<path d="M385.88 188.731C395.241 181.111 404.603 173.492 413.966 165.872" stroke="#1A2351" stroke-width="3.32" stroke-miterlimit="10"/>
<path d="M396.188 202.81C400.545 202.288 404.856 200.632 408.479 198.092" stroke="#1A2351" stroke-width="3.32" stroke-miterlimit="10"/>
<path d="M401.023 225.52C416.704 225.35 432.388 225.18 448.069 225.009" stroke="#1A2351" stroke-width="3.32" stroke-miterlimit="10"/>
<path d="M402.827 417.869L390.845 486.978C388.146 502.548 373.949 512.511 359.702 508.833H359.7C346.497 505.426 338.041 491.478 340.414 477.023L346.916 437.415L402.827 417.869Z" fill="#A6B3F6"/>
<path d="M381.551 457.806C375.35 462.454 367.776 464.92 360.233 464.748C352.691 464.576 345.219 461.768 339.205 456.841" stroke="#1A2351" stroke-width="0.18924" stroke-miterlimit="10"/>
<path d="M405.829 396.739C406.59 385.373 407.352 374.007 408.114 362.641C416.374 360.125 420.668 348.694 417.372 340.125C414.075 331.556 404.713 326.744 396.216 328.056C401.58 324.109 401.165 314.68 396.765 309.526C392.364 304.372 385.467 302.702 378.986 302.431C372.503 302.16 365.944 303.011 359.566 301.729C353.915 300.595 348.379 297.798 342.677 298.576C336.975 299.354 331.526 306.29 334.599 311.541C326.374 310.235 317.479 309.047 310.175 313.338C302.871 317.626 299.202 329.829 305.48 335.72C301.331 338.009 300.295 344.503 302.627 348.86C304.96 353.218 309.732 355.506 314.376 355.867C319.02 356.227 323.625 354.955 328.134 353.695" fill="#1A2351"/>
<path d="M404.487 374.635L402.828 398.261C402.828 398.261 421.404 400.968 416.109 419.292C410.815 437.615 398.108 429.6 398.108 429.6C398.108 429.6 394.931 476.552 350.458 461.665C315.061 449.816 317.226 400.248 321.72 357.989C323.46 341.62 337.78 330.361 352.736 333.511L379.473 339.145C394.928 342.402 405.679 357.655 404.487 374.635Z" fill="#A6B3F6"/>
<path d="M407.949 409.564C407.054 411.749 406.16 413.932 405.264 416.117C405.952 414.884 407.889 415.074 408.6 416.293C409.31 417.511 408.894 419.225 407.921 420.209C406.948 421.193 405.559 421.551 404.228 421.584" stroke="#1A2351" stroke-width="0.18924" stroke-miterlimit="10"/>
<path d="M402.828 398.261C390.414 385.173 386.767 363.366 383.397 344.976C371.902 354.031 356.089 356.256 342.833 350.688C338.672 355.976 333.785 360.594 328.381 364.342C326.845 365.408 325.024 366.442 323.277 365.871C321.195 365.191 320.265 362.607 319.77 360.317C318.183 352.982 318.125 345.132 320.491 338.047C322.857 330.963 327.817 324.74 334.312 322.021C341.257 319.113 349.069 320.377 356.276 322.398C367.135 325.443 377.599 330.12 387.276 336.252C396.776 342.272 405.901 350.231 409.932 361.311C413.962 372.39 413.943 393.925 404.228 399.525" fill="#1A2351"/>
<path d="M378.917 377.556C376.584 375.167 373.099 374.175 369.981 375.018" stroke="#1A2351" stroke-width="4.98" stroke-miterlimit="10"/>
<path d="M341.694 369.389C338.66 367.475 334.825 367.113 331.53 368.428" stroke="#1A2351" stroke-width="4.98" stroke-miterlimit="10"/>
<path d="M350.794 376.572C350.138 387.902 349.482 399.231 348.826 410.561C348.68 413.089 348.567 415.837 349.477 417.959C350.387 420.081 352.756 420.804 353.634 418.649" stroke="#1A2351" stroke-width="1.66" stroke-miterlimit="10"/>
<path d="M365.985 422.057C365.639 426.4 362.712 430.374 358.874 431.708C355.036 433.043 350.515 431.659 347.896 428.345" stroke="#1A2351" stroke-width="1.66" stroke-miterlimit="10"/>
<path d="M337.353 380.956C339.432 380.956 341.121 382.892 341.121 385.276C341.121 387.66 339.432 389.596 337.353 389.596C335.273 389.596 333.584 387.66 333.584 385.276C333.584 382.892 335.273 380.956 337.353 380.956Z" fill="#1A2351"/>
<path d="M372.024 385.126C374.104 385.126 375.793 387.062 375.793 389.446C375.793 391.83 374.104 393.766 372.024 393.766C369.945 393.766 368.256 391.83 368.256 389.446C368.256 387.062 369.945 385.126 372.024 385.126Z" fill="#1A2351"/>
</g>
<defs>
<clipPath id="clip0_78_861">
<rect width="650" height="821" fill="white"/>
</clipPath>
</defs>
</svg>
