<svg width="556" height="891" viewBox="0 0 556 891" fill="none" xmlns="http://www.w3.org/2000/svg">
<g clip-path="url(#clip0_136_3114)">
<path d="M275.87 495.921C269.154 503.238 266.565 514.837 272.903 524.019C278.869 532.662 290.477 534.78 298.003 528.226C316.171 512.403 297.43 481.781 277.872 487.478C274.252 488.532 275.13 494.576 278.7 494.912C284.41 495.449 290.52 495.872 295.063 500.672C299.942 505.826 300.017 514.324 295.971 519.988C285.261 534.985 266.862 511.966 278.101 498.601C279.52 496.915 277.351 494.306 275.87 495.921Z" fill="#68B8B3"/>
<path d="M461.128 524.834C463.807 534.778 466.731 544.581 469.764 554.372C470.494 556.729 472.576 557.276 474.426 555.666C481.695 549.34 488.968 543.106 495.833 536.222C497.155 534.896 496.812 532.535 495.464 531.659C487.15 526.261 475.909 518.189 465.52 519.194C462.877 519.449 461.114 523.768 463.827 525.209C468.073 527.463 473.118 527.904 477.637 529.509C482.853 531.363 488.024 533.636 492.661 536.785C492.728 535.101 492.798 533.416 492.865 531.733C485.16 537.878 477.924 544.629 470.612 551.362C472.081 551.537 473.549 551.711 475.019 551.885C471.65 542.252 468.195 532.698 464.483 523.244C463.7 521.25 460.557 522.713 461.128 524.834Z" fill="#68B8B3"/>
<path d="M512.712 578.674C523.59 572.895 534.73 566.216 544.546 558.293C548.152 555.383 544.639 549.444 540.841 551.659C530.355 557.771 520.132 565.75 510.768 573.916C508.888 575.554 510.249 579.982 512.712 578.674Z" fill="#68B8B3"/>
<path d="M114.426 617.147C111.759 603.771 108.368 589.962 103.609 577.5C101.862 572.923 95.9506 576.109 97.0528 580.808C100.094 593.78 104.814 606.72 109.877 618.697C110.893 621.1 115.03 620.177 114.426 617.147Z" fill="#68B8B3"/>
<path d="M147.77 494.649C147.566 494.434 147.364 494.22 147.16 494.005C144.478 491.169 140.072 490.577 137.454 493.913C134.809 497.286 134.896 501.956 137.438 505.378C137.617 505.621 137.797 505.863 137.976 506.106C140.375 509.338 145.328 509.291 147.752 506.199C150.162 503.126 150.656 497.699 147.77 494.649Z" fill="#68B8B3"/>
<path d="M182.745 609.04C183.287 604.733 183.178 600.642 185.211 596.839C189.262 589.262 195.024 591.127 200.605 594.42C206.291 597.774 211.644 599.773 217.818 596.574C227.462 591.58 231.974 574.338 222.761 566.291C219.775 563.683 216.845 568.03 217.246 571.343C217.808 575.973 219.755 581.058 216.405 585.057C211.924 590.406 206.662 585.964 202.186 583.601C197.35 581.049 192.21 580.508 187.226 582.921C178.643 587.076 172.43 600.886 179.256 610.149C180.219 611.455 182.516 610.853 182.745 609.04Z" fill="#323F81"/>
<path d="M309.434 617.141C321.031 613.514 333.024 609.045 343.898 603.079C347.893 600.887 345.329 594.305 341.25 595.767C329.99 599.803 318.702 605.744 308.237 612.036C306.138 613.298 306.808 617.963 309.434 617.141Z" fill="#1A2351"/>
<path d="M251.949 631.767C254.397 642.528 257.089 653.168 259.889 663.805C260.563 666.365 262.605 667.163 264.459 665.664C271.749 659.772 279.038 653.975 285.942 647.454C287.27 646.197 286.978 643.676 285.666 642.61C277.575 636.039 266.65 626.341 256.388 626.295C253.778 626.283 251.954 630.646 254.603 632.452C258.745 635.275 263.71 636.278 268.133 638.45C273.239 640.957 278.293 643.901 282.803 647.711C282.903 645.945 283.004 644.177 283.103 642.411C275.388 648.068 268.121 654.406 260.783 660.724C262.229 661.064 263.672 661.404 265.118 661.744C261.982 651.237 258.764 640.806 255.287 630.452C254.553 628.265 251.427 629.473 251.949 631.767Z" fill="#323F81"/>
<path d="M267.893 739.591C279.867 740.648 292.453 741.071 304.41 739.67C308.802 739.155 308.263 732.033 303.998 731.835C292.227 731.286 279.887 732.508 268.221 734.371C265.882 734.745 265.181 739.351 267.893 739.591Z" fill="#323F81"/>
<path d="M323.554 579.162L196.49 637.628L192.51 558.403L165.305 545.897C165.305 545.897 125.858 673.057 175.19 696.733C224.525 720.41 280.113 676.661 280.113 676.661L323.554 579.162Z" fill="#A6B3F6"/>
<path d="M339.276 559.746C294.925 576.54 268.47 596.219 206.036 627.167L238.095 712.136L293.359 691.051L339.276 559.746Z" fill="#68B8B3"/>
<path d="M163.927 548.542C163.927 548.542 169.572 507.351 176.315 507.795C183.058 508.24 196.543 507.793 196.543 507.793C196.543 507.793 197.668 468.617 201.414 474.85C205.16 481.083 206.34 533.793 191.89 559.083L163.927 548.542Z" fill="#A6B3F6"/>
<path d="M436.564 855.9C436.564 855.9 322.676 887.384 276.931 833.019L293.302 703.16C298.276 665.835 295.31 594.013 319.364 568.535C324.018 563.605 328.497 561.151 328.497 561.151C345.372 551.468 375.39 546.239 404.21 546.107C439.222 545.946 475.257 577.412 484.451 617.559L446.557 722.902L436.564 855.9Z" fill="#68B8B3"/>
<path d="M379.629 678.233C395.113 677.207 410.4 678.006 425.871 678.248C427.222 678.27 427.142 675.998 425.871 675.818C410.63 673.651 394.885 674.519 379.629 676.077C378.48 676.194 378.452 678.31 379.629 678.233Z" fill="#1A2766"/>
<path d="M304.01 627.407C297.57 657.929 293.246 689.673 291.651 721.101C291.584 722.4 293.432 722.731 293.589 721.412C297.331 690.161 301.096 659.001 305.312 627.835C305.447 626.837 304.225 626.381 304.01 627.407Z" fill="#1A2766"/>
<path d="M432.716 632.088C432.716 632.088 483.73 748.871 458.398 755.091C375.065 775.549 326.694 792.328 326.694 792.328L322.448 830.791C323.691 836.603 491.044 831.572 510.867 804.853C524.863 785.987 543.469 742.383 503.888 648.011L491.861 615.908L432.716 632.088Z" fill="#A6B3F6"/>
<path d="M326.694 792.328C326.694 792.328 266.232 804.906 267.414 814.228C268.596 823.549 272.842 832.95 272.842 832.95L326.694 831.445V792.328Z" fill="#A6B3F6"/>
<path d="M425.999 615.908L458.228 704.906L530.918 689.133C530.918 689.133 507.941 613.645 473.844 591.39C470.8 589.405 423.967 615.908 423.967 615.908" fill="#68B8B3"/>
<path d="M456.383 573.359C404.079 578.973 439.853 670.622 453.258 698.374C454.005 699.919 456.009 698.53 455.27 696.976C441.946 668.942 406.291 583.652 456.556 574.876C457.274 574.75 457.111 573.28 456.383 573.359Z" fill="#1A2766"/>
<path d="M384.912 836.865L384.451 826.918L259.917 817.862L218.152 685.093L81.4648 694.025L128.096 837.598L384.912 836.865Z" fill="#68B8B3"/>
<g opacity="0.41">
<path d="M156.828 757.244C157.136 763.884 161.913 768.974 167.501 768.609C173.09 768.243 177.371 762.565 177.064 755.923C176.756 749.283 171.977 744.192 166.389 744.558C160.802 744.923 156.521 750.604 156.828 757.244Z" fill="white"/>
</g>
<g opacity="0.41">
<path d="M152.778 757.508C153.207 766.808 159.899 773.933 167.724 773.422C175.55 772.911 181.543 764.956 181.113 755.657C180.683 746.359 173.991 739.234 166.166 739.745C158.341 740.256 152.348 748.208 152.778 757.508Z" fill="white"/>
</g>
<path d="M61.1748 839.806L595.743 831.874L627.051 851.411C627.051 851.411 216.677 985.27 61.1748 839.806Z" fill="#1A2351"/>
<path d="M377.81 219.598C377.81 219.598 350.271 221.233 349.353 256.143C349.353 256.143 349.812 275.234 358.532 282.325C367.252 289.417 366.795 297.052 366.795 297.052H389.743C389.743 297.052 388.826 287.233 392.497 281.779C396.169 276.323 405.349 264.868 403.972 247.959C402.596 231.051 392.038 217.962 377.81 219.598Z" fill="#D1E8EF"/>
<path d="M366.354 305.339C374.595 304.886 382.929 305.962 391.112 305.394C392.292 305.313 392.694 303.126 391.407 302.809C383.452 300.857 374.357 301.94 366.354 303.008C365.13 303.171 365.067 305.412 366.354 305.339Z" fill="black"/>
<path d="M369.559 313.62C372.845 313.393 376.143 313.232 379.433 313.274C382.705 313.316 386.058 313.957 389.311 313.675C390.506 313.571 390.875 311.484 389.606 311.09C383.314 309.137 375.658 310.264 369.298 311.33C368.205 311.513 368.462 313.697 369.559 313.62Z" fill="black"/>
<path d="M372.495 319.956C375.372 320.194 378.343 321.163 381.209 321.088C382.632 321.05 382.891 318.67 381.541 318.166C378.755 317.125 375.381 317.488 372.495 317.625C371.224 317.684 371.241 319.853 372.495 319.956Z" fill="black"/>
<path d="M373.568 296.676C374.205 286.973 371.45 276.233 370.057 266.713C369.259 267.114 368.459 267.512 367.66 267.913C368.814 270.168 370.733 276.667 373.679 276.434C376.723 276.194 377.851 269.741 378.281 267.112C377.405 267.112 376.53 267.112 375.654 267.112C376.241 270.106 376.317 277.336 380.276 276.654C383.627 276.075 385.891 270.157 386.918 266.914C386.008 266.614 385.095 266.319 384.185 266.02C382.16 275.513 381.189 287.53 383.218 297.096C383.583 298.814 385.88 298.474 385.836 296.676C385.588 286.618 384.402 276.773 386.918 266.914C387.459 264.798 384.835 264.049 384.185 266.02C383.815 267.138 381.645 273.51 379.596 272.689C379.079 272.482 378.394 266.804 378.281 266.251C377.975 264.763 375.897 264.65 375.654 266.251C375.358 268.202 374.674 273.514 372.738 271.927C371.619 271.009 370.63 267.739 369.926 266.339C369.116 264.732 367.306 265.868 367.529 267.541C368.794 277.068 369.142 288.157 372.36 297.063C372.64 297.834 373.525 297.347 373.568 296.676Z" fill="#1A2351"/>
<path d="M362.193 213.685C359.003 209.797 355.816 205.91 352.626 202.022" stroke="#1A2351" stroke-width="3.32" stroke-miterlimit="10"/>
<path d="M335.253 253.521C327.799 251.994 320.345 250.462 312.889 248.934" stroke="#1A2351" stroke-width="3.32" stroke-miterlimit="10"/>
<path d="M344.535 229.433C334.86 224.619 325.187 219.805 315.512 214.991" stroke="#1A2351" stroke-width="3.32" stroke-miterlimit="10"/>
<path d="M378.912 205.488C376.93 192.014 374.95 178.538 372.968 165.064" stroke="#1A2351" stroke-width="3.32" stroke-miterlimit="10"/>
<path d="M392.823 208.988C395.123 203.371 397.428 197.752 399.728 192.135" stroke="#1A2351" stroke-width="3.32" stroke-miterlimit="10"/>
<path d="M405.039 217.925C415.165 209.127 425.29 200.329 435.418 191.531" stroke="#1A2351" stroke-width="3.32" stroke-miterlimit="10"/>
<path d="M416.251 234.189C420.84 233.492 425.407 231.578 429.273 228.735" stroke="#1A2351" stroke-width="3.32" stroke-miterlimit="10"/>
<path d="M421.384 261.126C437.861 260.449 454.341 259.773 470.818 259.096" stroke="#1A2351" stroke-width="3.32" stroke-miterlimit="10"/>
<path d="M423.278 482.509L410.688 562.309C407.852 580.287 392.935 591.791 377.964 587.544H377.962C364.088 583.61 355.203 567.505 357.697 550.814L364.529 505.079L423.278 482.509Z" fill="#A6B3F6"/>
<path d="M400.922 528.623C394.407 533.991 386.448 536.838 378.523 536.639C370.597 536.441 362.746 533.198 356.427 527.509" stroke="#1A2351" stroke-width="0.18924" stroke-miterlimit="10"/>
<path d="M426.433 458.111C427.233 444.986 428.034 431.862 428.834 418.738C437.513 415.832 442.026 402.633 438.562 392.739C435.097 382.844 425.26 377.287 416.333 378.802C421.968 374.245 421.533 363.358 416.909 357.406C412.285 351.455 405.037 349.527 398.227 349.214C391.415 348.901 384.524 349.883 377.821 348.404C371.884 347.094 366.067 343.864 360.075 344.762C354.084 345.661 348.358 353.67 351.587 359.734C342.944 358.225 333.598 356.854 325.923 361.808C318.248 366.759 314.393 380.85 320.99 387.653C316.63 390.295 315.541 397.794 317.992 402.825C320.443 407.858 325.458 410.5 330.338 410.916C335.217 411.332 340.056 409.863 344.793 408.408" fill="#1A2351"/>
<path d="M425.023 432.587L423.28 459.867C423.28 459.867 442.799 462.994 437.236 484.152C431.672 505.31 418.321 496.054 418.321 496.054C418.321 496.054 414.982 550.27 368.251 533.079C331.057 519.398 333.332 462.162 338.054 413.366C339.882 394.465 354.929 381.464 370.644 385.101L398.739 391.607C414.979 395.368 426.276 412.981 425.023 432.587Z" fill="#A6B3F6"/>
<path d="M428.661 472.919C427.72 475.442 426.78 477.963 425.839 480.486C426.562 479.062 428.598 479.282 429.344 480.689C430.091 482.096 429.654 484.075 428.631 485.211C427.609 486.347 426.149 486.761 424.75 486.798" stroke="#1A2351" stroke-width="0.18924" stroke-miterlimit="10"/>
<path d="M423.28 459.867C410.236 444.755 406.403 419.575 402.863 398.34C390.784 408.795 374.168 411.365 360.239 404.936C355.867 411.041 350.731 416.374 345.053 420.702C343.44 421.933 341.526 423.126 339.69 422.468C337.502 421.682 336.526 418.699 336.005 416.054C334.338 407.585 334.277 398.52 336.763 390.339C339.249 382.16 344.46 374.974 351.285 371.834C358.583 368.476 366.791 369.936 374.365 372.27C385.775 375.786 396.77 381.187 406.939 388.267C416.92 395.218 426.509 404.408 430.744 417.201C434.979 429.995 434.959 454.861 424.751 461.327" fill="#1A2351"/>
<path d="M398.155 435.96C395.704 433.201 392.041 432.056 388.766 433.029" stroke="#1A2351" stroke-width="4.98" stroke-miterlimit="10"/>
<path d="M359.042 426.53C355.854 424.319 351.825 423.901 348.362 425.42" stroke="#1A2351" stroke-width="4.98" stroke-miterlimit="10"/>
<path d="M368.604 434.824C367.915 447.906 367.226 460.988 366.537 474.07C366.383 476.99 366.264 480.162 367.22 482.613C368.176 485.063 370.666 485.898 371.589 483.41" stroke="#1A2351" stroke-width="1.66" stroke-miterlimit="10"/>
<path d="M384.566 487.344C384.203 492.36 381.128 496.948 377.095 498.489C373.062 500.03 368.312 498.432 365.559 494.605" stroke="#1A2351" stroke-width="1.66" stroke-miterlimit="10"/>
<path d="M354.48 439.886C356.666 439.886 358.44 442.121 358.44 444.874C358.44 447.627 356.666 449.862 354.48 449.862C352.295 449.862 350.521 447.627 350.521 444.874C350.521 442.121 352.295 439.886 354.48 439.886Z" fill="#1A2351"/>
<path d="M390.912 444.701C393.097 444.701 394.872 446.936 394.872 449.689C394.872 452.442 393.097 454.677 390.912 454.677C388.727 454.677 386.952 452.442 386.952 449.689C386.952 446.936 388.727 444.701 390.912 444.701Z" fill="#1A2351"/>
</g>
<defs>
<clipPath id="clip0_136_3114">
<rect width="683" height="948" fill="white"/>
</clipPath>
</defs>
</svg>
