<svg width="24" height="25" viewBox="0 0 24 25" fill="none" xmlns="http://www.w3.org/2000/svg">
<path d="M12.0002 12.5V21.5M12.0002 12.5L9.50021 14.5M12.0002 12.5L14.5002 14.5M5.03421 9.61699C4.08842 9.85498 3.26208 10.4301 2.71046 11.2344C2.15883 12.0387 1.91989 13.0167 2.03851 13.9848C2.15714 14.9528 2.62517 15.8442 3.35467 16.4915C4.08417 17.1388 5.02494 17.4974 6.00021 17.5H7.00021" stroke="#191D23" stroke-width="2" stroke-linecap="round" stroke-linejoin="round"/>
<path d="M15.8306 7.63799C15.4889 6.28456 14.6452 5.11173 13.4708 4.35725C12.2963 3.60277 10.8789 3.32308 9.5059 3.5749C8.13289 3.82671 6.90699 4.59118 6.07671 5.71333C5.24643 6.83549 4.87391 8.23136 5.03465 9.61799C5.03465 9.61799 5.18765 10.5 5.50065 11" stroke="#191D23" stroke-width="2" stroke-linecap="round" stroke-linejoin="round"/>
<path d="M17 17.5C17.706 17.4995 18.404 17.3495 19.0479 17.0599C19.6917 16.7702 20.267 16.3475 20.7357 15.8195C21.2045 15.2915 21.5561 14.6702 21.7674 13.9965C21.9787 13.3229 22.045 12.6121 21.9618 11.9109C21.8786 11.2098 21.6479 10.5343 21.2848 9.92874C20.9217 9.32321 20.4345 8.80145 19.8552 8.39778C19.276 7.99412 18.6178 7.71772 17.924 7.58676C17.2302 7.4558 16.5166 7.47327 15.83 7.638L14.5 8" stroke="#191D23" stroke-width="2" stroke-linecap="round" stroke-linejoin="round"/>
</svg>
