<svg width="17" height="17" viewBox="0 0 17 17" fill="none" xmlns="http://www.w3.org/2000/svg">
<path d="M13.2032 7.19102C13.2032 10.9558 8.36284 14.1827 8.36284 14.1827C8.36284 14.1827 3.52246 10.9558 3.52246 7.19102C3.52246 5.90728 4.03243 4.67611 4.94017 3.76836C5.84792 2.86061 7.07909 2.35065 8.36284 2.35065C9.64659 2.35065 10.8778 2.86061 11.7855 3.76836C12.6932 4.67611 13.2032 5.90728 13.2032 7.19102Z" fill="#8E94A7"/>
<path d="M8.36297 8.80449C9.25406 8.80449 9.97643 8.08212 9.97643 7.19103C9.97643 6.29995 9.25406 5.57758 8.36297 5.57758C7.47188 5.57758 6.74951 6.29995 6.74951 7.19103C6.74951 8.08212 7.47188 8.80449 8.36297 8.80449Z" fill="white"/>
</svg>
