<svg width="77" height="69" viewBox="0 0 77 69" fill="none" xmlns="http://www.w3.org/2000/svg">
<path d="M38.5195 36.163C39.3921 36.163 40.0995 35.5255 40.0995 34.7391C40.0995 33.9527 39.3921 33.3152 38.5195 33.3152C37.6468 33.3152 36.9395 33.9527 36.9395 34.7391C36.9395 35.5255 37.6468 36.163 38.5195 36.163Z" stroke="#8E94A7" stroke-width="2" stroke-linecap="round" stroke-linejoin="round"/>
<path d="M38.5195 26.1957C39.3921 26.1957 40.0995 25.5582 40.0995 24.7718C40.0995 23.9853 39.3921 23.3478 38.5195 23.3478C37.6468 23.3478 36.9395 23.9853 36.9395 24.7718C36.9395 25.5582 37.6468 26.1957 38.5195 26.1957Z" stroke="#8E94A7" stroke-width="2" stroke-linecap="round" stroke-linejoin="round"/>
<path d="M38.5195 46.1304C39.3921 46.1304 40.0995 45.4929 40.0995 44.7065C40.0995 43.9201 39.3921 43.2826 38.5195 43.2826C37.6468 43.2826 36.9395 43.9201 36.9395 44.7065C36.9395 45.4929 37.6468 46.1304 38.5195 46.1304Z" stroke="#8E94A7" stroke-width="2" stroke-linecap="round" stroke-linejoin="round"/>
</svg>
